<svg width="117" height="54" viewBox="0 0 117 54" fill="none" xmlns="http://www.w3.org/2000/svg">
<path d="M12.1415 39.4093C10.2088 39.4093 8.49221 39.0114 6.99158 38.2156C5.51368 37.4198 4.34274 36.2943 3.47874 34.8392C2.63747 33.3613 2.21684 31.6105 2.21684 29.5869V15.1263H7.09389V29.8939C7.09389 30.8488 7.29853 31.7242 7.70779 32.52C8.11705 33.2931 8.69684 33.9183 9.44716 34.3958C10.2202 34.8733 11.1183 35.112 12.1415 35.112C13.1874 35.112 14.0855 34.8733 14.8358 34.3958C15.5861 33.9183 16.1659 33.2931 16.5752 32.52C16.9844 31.7242 17.1891 30.8488 17.1891 29.8939V15.1263H22.0661V29.5869C22.0661 31.6105 21.6341 33.3613 20.7701 34.8392C19.9288 36.2943 18.7579 37.4198 17.2573 38.2156C15.7794 39.0114 14.0741 39.4093 12.1415 39.4093ZM26.4969 39V29.0072C26.4969 27.5747 26.8265 26.2674 27.4859 25.0851C28.168 23.9027 29.1457 22.9592 30.419 22.2543C31.6922 21.5495 33.2156 21.1971 34.9891 21.1971C36.7853 21.1971 38.3086 21.5495 39.5592 22.2543C40.8324 22.9592 41.7988 23.9027 42.4581 25.0851C43.1402 26.2674 43.4813 27.5747 43.4813 29.0072V39H38.8089V29.0072C38.8089 28.3023 38.6383 27.6657 38.2973 27.0973C37.9562 26.5061 37.4901 26.04 36.899 25.6989C36.3305 25.3579 35.6939 25.1874 34.9891 25.1874C34.2842 25.1874 33.6362 25.3579 33.0451 25.6989C32.4766 26.04 32.0219 26.5061 31.6809 27.0973C31.3398 27.6657 31.1693 28.3023 31.1693 29.0072V39H26.4969ZM47.9126 39V21.6063H52.6191V39H47.9126ZM50.2658 19.5259C49.47 19.5259 48.7766 19.2417 48.1854 18.6733C47.617 18.0821 47.3328 17.3886 47.3328 16.5928C47.3328 15.7971 47.617 15.1149 48.1854 14.5465C48.7766 13.9554 49.47 13.6598 50.2658 13.6598C51.0616 13.6598 51.7437 13.9554 52.3121 14.5465C52.9033 15.1149 53.1989 15.7971 53.1989 16.5928C53.1989 17.3886 52.9033 18.0821 52.3121 18.6733C51.7437 19.2417 51.0616 19.5259 50.2658 19.5259ZM65.3609 39C63.5647 39 61.9617 38.6135 60.552 37.8404C59.1423 37.0674 58.0282 36.0328 57.2097 34.7368C56.3912 33.4181 55.9819 31.9402 55.9819 30.3032C55.9819 28.6661 56.3912 27.1996 57.2097 25.9036C58.0282 24.5848 59.1423 23.5389 60.552 22.7659C61.9617 21.9928 63.5647 21.6063 65.3609 21.6063H67.5436V25.5966H65.3609C64.4059 25.5966 63.576 25.8013 62.8712 26.2105C62.1891 26.6198 61.6548 27.1882 61.2682 27.9158C60.9044 28.6206 60.7226 29.4164 60.7226 30.3032C60.7226 31.1899 60.9044 31.9971 61.2682 32.7246C61.6548 33.4295 62.1891 33.9865 62.8712 34.3958C63.576 34.8051 64.4059 35.0097 65.3609 35.0097H67.5436V39H65.3609ZM77.6489 39.4093C76.0573 39.4093 74.6704 39 73.488 38.1815C72.3057 37.3629 71.3849 36.2716 70.7255 34.9074C70.0889 33.5204 69.7706 31.9971 69.7706 30.3373C69.7706 28.632 70.1344 27.0859 70.8619 25.6989C71.6123 24.312 72.6809 23.2206 74.0678 22.4248C75.4548 21.6063 77.1146 21.1971 79.0472 21.1971C81.0026 21.1971 82.651 21.6063 83.9925 22.4248C85.3339 23.2434 86.3571 24.3461 87.0619 25.7331C87.7668 27.12 88.1192 28.6547 88.1192 30.3373V39H83.4468V36.1011H83.3786C83.0375 36.7149 82.6055 37.272 82.0826 37.7722C81.5824 38.2724 80.9685 38.6703 80.2409 38.9659C79.5133 39.2615 78.6493 39.4093 77.6489 39.4093ZM78.979 35.4189C79.8885 35.4189 80.6729 35.1916 81.3323 34.7368C81.9916 34.2821 82.4918 33.6682 82.8329 32.8952C83.1967 32.0994 83.3786 31.224 83.3786 30.2691C83.3786 29.3141 83.1967 28.4615 82.8329 27.7112C82.4918 26.9381 81.9916 26.3242 81.3323 25.8695C80.6729 25.4147 79.8885 25.1874 78.979 25.1874C78.0468 25.1874 77.2396 25.4147 76.5575 25.8695C75.8982 26.3242 75.3866 26.9381 75.0228 27.7112C74.6817 28.4615 74.5112 29.3141 74.5112 30.2691C74.5112 31.224 74.6817 32.0994 75.0228 32.8952C75.3866 33.6682 75.8982 34.2821 76.5575 34.7368C77.2396 35.1916 78.0468 35.4189 78.979 35.4189ZM92.5425 39V14.1032H97.2149V39H92.5425ZM109.991 39C108.195 39 106.592 38.6135 105.182 37.8404C103.772 37.0674 102.658 36.0328 101.84 34.7368C101.021 33.4181 100.612 31.9402 100.612 30.3032C100.612 28.6661 101.021 27.1996 101.84 25.9036C102.658 24.5848 103.772 23.5389 105.182 22.7659C106.592 21.9928 108.195 21.6063 109.991 21.6063H112.174V25.5966H109.991C109.036 25.5966 108.206 25.8013 107.501 26.2105C106.819 26.6198 106.285 27.1882 105.898 27.9158C105.534 28.6206 105.352 29.4164 105.352 30.3032C105.352 31.1899 105.534 31.9971 105.898 32.7246C106.285 33.4295 106.819 33.9865 107.501 34.3958C108.206 34.8051 109.036 35.0097 109.991 35.0097H112.174V39H109.991Z" fill="#262A97"/>
<circle cx="113.329" cy="30.1974" r="3.19737" fill="#262A97"/>
</svg>
